<mxfile host="Electron" modified="2023-09-19T17:09:31.330Z" agent="Mozilla/5.0 (Windows NT 10.0; Win64; x64) AppleWebKit/537.36 (KHTML, like Gecko) draw.io/21.7.5 Chrome/114.0.5735.289 Electron/25.8.1 Safari/537.36" etag="cDHC_veftXSjrhkZuuqX" version="21.7.5" type="device">
  <diagram id="C5RBs43oDa-KdzZeNtuy" name="Page-1">
    <mxGraphModel dx="1430" dy="825" grid="1" gridSize="10" guides="1" tooltips="1" connect="1" arrows="1" fold="1" page="1" pageScale="1" pageWidth="827" pageHeight="1169" math="0" shadow="0">
      <root>
        <mxCell id="WIyWlLk6GJQsqaUBKTNV-0" />
        <mxCell id="WIyWlLk6GJQsqaUBKTNV-1" parent="WIyWlLk6GJQsqaUBKTNV-0" />
        <mxCell id="7Iyeh0ebuuwh2N7JU2GR-0" value="Employee" style="swimlane;fontStyle=1;align=center;verticalAlign=top;childLayout=stackLayout;horizontal=1;startSize=26;horizontalStack=0;resizeParent=1;resizeParentMax=0;resizeLast=0;collapsible=1;marginBottom=0;whiteSpace=wrap;html=1;" parent="WIyWlLk6GJQsqaUBKTNV-1" vertex="1">
          <mxGeometry x="334" y="77" width="160" height="112" as="geometry" />
        </mxCell>
        <mxCell id="7Iyeh0ebuuwh2N7JU2GR-1" value="# firstName: string" style="text;strokeColor=none;fillColor=none;align=left;verticalAlign=top;spacingLeft=4;spacingRight=4;overflow=hidden;rotatable=0;points=[[0,0.5],[1,0.5]];portConstraint=eastwest;whiteSpace=wrap;html=1;" parent="7Iyeh0ebuuwh2N7JU2GR-0" vertex="1">
          <mxGeometry y="26" width="160" height="26" as="geometry" />
        </mxCell>
        <mxCell id="7Iyeh0ebuuwh2N7JU2GR-4" value="# lastName: string" style="text;strokeColor=none;fillColor=none;align=left;verticalAlign=top;spacingLeft=4;spacingRight=4;overflow=hidden;rotatable=0;points=[[0,0.5],[1,0.5]];portConstraint=eastwest;whiteSpace=wrap;html=1;" parent="7Iyeh0ebuuwh2N7JU2GR-0" vertex="1">
          <mxGeometry y="52" width="160" height="26" as="geometry" />
        </mxCell>
        <mxCell id="7Iyeh0ebuuwh2N7JU2GR-5" value="# salary: decimal" style="text;strokeColor=none;fillColor=none;align=left;verticalAlign=top;spacingLeft=4;spacingRight=4;overflow=hidden;rotatable=0;points=[[0,0.5],[1,0.5]];portConstraint=eastwest;whiteSpace=wrap;html=1;" parent="7Iyeh0ebuuwh2N7JU2GR-0" vertex="1">
          <mxGeometry y="78" width="160" height="26" as="geometry" />
        </mxCell>
        <mxCell id="7Iyeh0ebuuwh2N7JU2GR-2" value="" style="line;strokeWidth=1;fillColor=none;align=left;verticalAlign=middle;spacingTop=-1;spacingLeft=3;spacingRight=3;rotatable=0;labelPosition=right;points=[];portConstraint=eastwest;strokeColor=inherit;" parent="7Iyeh0ebuuwh2N7JU2GR-0" vertex="1">
          <mxGeometry y="104" width="160" height="8" as="geometry" />
        </mxCell>
        <mxCell id="7Iyeh0ebuuwh2N7JU2GR-10" value="CEO" style="swimlane;fontStyle=1;align=center;verticalAlign=top;childLayout=stackLayout;horizontal=1;startSize=26;horizontalStack=0;resizeParent=1;resizeParentMax=0;resizeLast=0;collapsible=1;marginBottom=0;whiteSpace=wrap;html=1;" parent="WIyWlLk6GJQsqaUBKTNV-1" vertex="1">
          <mxGeometry x="304" y="257" width="220" height="60" as="geometry" />
        </mxCell>
        <mxCell id="7Iyeh0ebuuwh2N7JU2GR-11" value="- hasSuperAccountAccess: bool" style="text;strokeColor=none;fillColor=none;align=left;verticalAlign=top;spacingLeft=4;spacingRight=4;overflow=hidden;rotatable=0;points=[[0,0.5],[1,0.5]];portConstraint=eastwest;whiteSpace=wrap;html=1;" parent="7Iyeh0ebuuwh2N7JU2GR-10" vertex="1">
          <mxGeometry y="26" width="220" height="26" as="geometry" />
        </mxCell>
        <mxCell id="7Iyeh0ebuuwh2N7JU2GR-12" value="" style="line;strokeWidth=1;fillColor=none;align=left;verticalAlign=middle;spacingTop=-1;spacingLeft=3;spacingRight=3;rotatable=0;labelPosition=right;points=[];portConstraint=eastwest;strokeColor=inherit;" parent="7Iyeh0ebuuwh2N7JU2GR-10" vertex="1">
          <mxGeometry y="52" width="220" height="8" as="geometry" />
        </mxCell>
        <mxCell id="7Iyeh0ebuuwh2N7JU2GR-14" value="COO" style="swimlane;fontStyle=1;align=center;verticalAlign=top;childLayout=stackLayout;horizontal=1;startSize=26;horizontalStack=0;resizeParent=1;resizeParentMax=0;resizeLast=0;collapsible=1;marginBottom=0;whiteSpace=wrap;html=1;" parent="WIyWlLk6GJQsqaUBKTNV-1" vertex="1">
          <mxGeometry x="230" y="443" width="156" height="60" as="geometry" />
        </mxCell>
        <mxCell id="7Iyeh0ebuuwh2N7JU2GR-15" value="- hasCar: bool" style="text;strokeColor=none;fillColor=none;align=left;verticalAlign=top;spacingLeft=4;spacingRight=4;overflow=hidden;rotatable=0;points=[[0,0.5],[1,0.5]];portConstraint=eastwest;whiteSpace=wrap;html=1;" parent="7Iyeh0ebuuwh2N7JU2GR-14" vertex="1">
          <mxGeometry y="26" width="156" height="26" as="geometry" />
        </mxCell>
        <mxCell id="7Iyeh0ebuuwh2N7JU2GR-16" value="" style="line;strokeWidth=1;fillColor=none;align=left;verticalAlign=middle;spacingTop=-1;spacingLeft=3;spacingRight=3;rotatable=0;labelPosition=right;points=[];portConstraint=eastwest;strokeColor=inherit;" parent="7Iyeh0ebuuwh2N7JU2GR-14" vertex="1">
          <mxGeometry y="52" width="156" height="8" as="geometry" />
        </mxCell>
        <mxCell id="7Iyeh0ebuuwh2N7JU2GR-17" value="CFO" style="swimlane;fontStyle=1;align=center;verticalAlign=top;childLayout=stackLayout;horizontal=1;startSize=26;horizontalStack=0;resizeParent=1;resizeParentMax=0;resizeLast=0;collapsible=1;marginBottom=0;whiteSpace=wrap;html=1;" parent="WIyWlLk6GJQsqaUBKTNV-1" vertex="1">
          <mxGeometry x="52" y="443" width="156" height="60" as="geometry" />
        </mxCell>
        <mxCell id="7Iyeh0ebuuwh2N7JU2GR-18" value="- hasCar: bool" style="text;strokeColor=none;fillColor=none;align=left;verticalAlign=top;spacingLeft=4;spacingRight=4;overflow=hidden;rotatable=0;points=[[0,0.5],[1,0.5]];portConstraint=eastwest;whiteSpace=wrap;html=1;" parent="7Iyeh0ebuuwh2N7JU2GR-17" vertex="1">
          <mxGeometry y="26" width="156" height="26" as="geometry" />
        </mxCell>
        <mxCell id="7Iyeh0ebuuwh2N7JU2GR-19" value="" style="line;strokeWidth=1;fillColor=none;align=left;verticalAlign=middle;spacingTop=-1;spacingLeft=3;spacingRight=3;rotatable=0;labelPosition=right;points=[];portConstraint=eastwest;strokeColor=inherit;" parent="7Iyeh0ebuuwh2N7JU2GR-17" vertex="1">
          <mxGeometry y="52" width="156" height="8" as="geometry" />
        </mxCell>
        <mxCell id="7Iyeh0ebuuwh2N7JU2GR-27" value="Chief" style="swimlane;fontStyle=1;align=center;verticalAlign=top;childLayout=stackLayout;horizontal=1;startSize=26;horizontalStack=0;resizeParent=1;resizeParentMax=0;resizeLast=0;collapsible=1;marginBottom=0;whiteSpace=wrap;html=1;" parent="WIyWlLk6GJQsqaUBKTNV-1" vertex="1">
          <mxGeometry x="140" y="585.5" width="160" height="60" as="geometry" />
        </mxCell>
        <mxCell id="7Iyeh0ebuuwh2N7JU2GR-28" value="- hasPhone: bool" style="text;strokeColor=none;fillColor=none;align=left;verticalAlign=top;spacingLeft=4;spacingRight=4;overflow=hidden;rotatable=0;points=[[0,0.5],[1,0.5]];portConstraint=eastwest;whiteSpace=wrap;html=1;" parent="7Iyeh0ebuuwh2N7JU2GR-27" vertex="1">
          <mxGeometry y="26" width="160" height="26" as="geometry" />
        </mxCell>
        <mxCell id="7Iyeh0ebuuwh2N7JU2GR-29" value="" style="line;strokeWidth=1;fillColor=none;align=left;verticalAlign=middle;spacingTop=-1;spacingLeft=3;spacingRight=3;rotatable=0;labelPosition=right;points=[];portConstraint=eastwest;strokeColor=inherit;" parent="7Iyeh0ebuuwh2N7JU2GR-27" vertex="1">
          <mxGeometry y="52" width="160" height="8" as="geometry" />
        </mxCell>
        <mxCell id="7Iyeh0ebuuwh2N7JU2GR-31" value="Manager" style="swimlane;fontStyle=1;align=center;verticalAlign=top;childLayout=stackLayout;horizontal=1;startSize=26;horizontalStack=0;resizeParent=1;resizeParentMax=0;resizeLast=0;collapsible=1;marginBottom=0;whiteSpace=wrap;html=1;" parent="WIyWlLk6GJQsqaUBKTNV-1" vertex="1">
          <mxGeometry x="140" y="706.5" width="160" height="60" as="geometry" />
        </mxCell>
        <mxCell id="7Iyeh0ebuuwh2N7JU2GR-32" value="- hasCheckboard: bool" style="text;strokeColor=none;fillColor=none;align=left;verticalAlign=top;spacingLeft=4;spacingRight=4;overflow=hidden;rotatable=0;points=[[0,0.5],[1,0.5]];portConstraint=eastwest;whiteSpace=wrap;html=1;" parent="7Iyeh0ebuuwh2N7JU2GR-31" vertex="1">
          <mxGeometry y="26" width="160" height="26" as="geometry" />
        </mxCell>
        <mxCell id="7Iyeh0ebuuwh2N7JU2GR-33" value="" style="line;strokeWidth=1;fillColor=none;align=left;verticalAlign=middle;spacingTop=-1;spacingLeft=3;spacingRight=3;rotatable=0;labelPosition=right;points=[];portConstraint=eastwest;strokeColor=inherit;" parent="7Iyeh0ebuuwh2N7JU2GR-31" vertex="1">
          <mxGeometry y="52" width="160" height="8" as="geometry" />
        </mxCell>
        <mxCell id="7Iyeh0ebuuwh2N7JU2GR-35" value="GarbageMan&lt;br&gt;" style="swimlane;fontStyle=1;align=center;verticalAlign=top;childLayout=stackLayout;horizontal=1;startSize=26;horizontalStack=0;resizeParent=1;resizeParentMax=0;resizeLast=0;collapsible=1;marginBottom=0;whiteSpace=wrap;html=1;" parent="WIyWlLk6GJQsqaUBKTNV-1" vertex="1">
          <mxGeometry x="52" y="837" width="160" height="60" as="geometry" />
        </mxCell>
        <mxCell id="7Iyeh0ebuuwh2N7JU2GR-36" value="- hasGarbageBag: bool" style="text;strokeColor=none;fillColor=none;align=left;verticalAlign=top;spacingLeft=4;spacingRight=4;overflow=hidden;rotatable=0;points=[[0,0.5],[1,0.5]];portConstraint=eastwest;whiteSpace=wrap;html=1;" parent="7Iyeh0ebuuwh2N7JU2GR-35" vertex="1">
          <mxGeometry y="26" width="160" height="26" as="geometry" />
        </mxCell>
        <mxCell id="7Iyeh0ebuuwh2N7JU2GR-37" value="" style="line;strokeWidth=1;fillColor=none;align=left;verticalAlign=middle;spacingTop=-1;spacingLeft=3;spacingRight=3;rotatable=0;labelPosition=right;points=[];portConstraint=eastwest;strokeColor=inherit;" parent="7Iyeh0ebuuwh2N7JU2GR-35" vertex="1">
          <mxGeometry y="52" width="160" height="8" as="geometry" />
        </mxCell>
        <mxCell id="7Iyeh0ebuuwh2N7JU2GR-39" value="Cashier" style="swimlane;fontStyle=1;align=center;verticalAlign=top;childLayout=stackLayout;horizontal=1;startSize=26;horizontalStack=0;resizeParent=1;resizeParentMax=0;resizeLast=0;collapsible=1;marginBottom=0;whiteSpace=wrap;html=1;" parent="WIyWlLk6GJQsqaUBKTNV-1" vertex="1">
          <mxGeometry x="228" y="837" width="160" height="60" as="geometry" />
        </mxCell>
        <mxCell id="7Iyeh0ebuuwh2N7JU2GR-40" value="- hasChestPain: bool" style="text;strokeColor=none;fillColor=none;align=left;verticalAlign=top;spacingLeft=4;spacingRight=4;overflow=hidden;rotatable=0;points=[[0,0.5],[1,0.5]];portConstraint=eastwest;whiteSpace=wrap;html=1;" parent="7Iyeh0ebuuwh2N7JU2GR-39" vertex="1">
          <mxGeometry y="26" width="160" height="26" as="geometry" />
        </mxCell>
        <mxCell id="7Iyeh0ebuuwh2N7JU2GR-41" value="" style="line;strokeWidth=1;fillColor=none;align=left;verticalAlign=middle;spacingTop=-1;spacingLeft=3;spacingRight=3;rotatable=0;labelPosition=right;points=[];portConstraint=eastwest;strokeColor=inherit;" parent="7Iyeh0ebuuwh2N7JU2GR-39" vertex="1">
          <mxGeometry y="52" width="160" height="8" as="geometry" />
        </mxCell>
        <mxCell id="8Jhp_cOmLeaIKp3F5dtW-0" value="HR" style="swimlane;fontStyle=1;align=center;verticalAlign=top;childLayout=stackLayout;horizontal=1;startSize=26;horizontalStack=0;resizeParent=1;resizeParentMax=0;resizeLast=0;collapsible=1;marginBottom=0;whiteSpace=wrap;html=1;" vertex="1" parent="WIyWlLk6GJQsqaUBKTNV-1">
          <mxGeometry x="620" y="443" width="156" height="60" as="geometry" />
        </mxCell>
        <mxCell id="8Jhp_cOmLeaIKp3F5dtW-1" value="- hasCar: bool" style="text;strokeColor=none;fillColor=none;align=left;verticalAlign=top;spacingLeft=4;spacingRight=4;overflow=hidden;rotatable=0;points=[[0,0.5],[1,0.5]];portConstraint=eastwest;whiteSpace=wrap;html=1;" vertex="1" parent="8Jhp_cOmLeaIKp3F5dtW-0">
          <mxGeometry y="26" width="156" height="26" as="geometry" />
        </mxCell>
        <mxCell id="8Jhp_cOmLeaIKp3F5dtW-2" value="" style="line;strokeWidth=1;fillColor=none;align=left;verticalAlign=middle;spacingTop=-1;spacingLeft=3;spacingRight=3;rotatable=0;labelPosition=right;points=[];portConstraint=eastwest;strokeColor=inherit;" vertex="1" parent="8Jhp_cOmLeaIKp3F5dtW-0">
          <mxGeometry y="52" width="156" height="8" as="geometry" />
        </mxCell>
        <mxCell id="8Jhp_cOmLeaIKp3F5dtW-3" value="Administrator" style="swimlane;fontStyle=1;align=center;verticalAlign=top;childLayout=stackLayout;horizontal=1;startSize=26;horizontalStack=0;resizeParent=1;resizeParentMax=0;resizeLast=0;collapsible=1;marginBottom=0;whiteSpace=wrap;html=1;" vertex="1" parent="WIyWlLk6GJQsqaUBKTNV-1">
          <mxGeometry x="444" y="443" width="156" height="60" as="geometry">
            <mxRectangle x="414" y="250" width="120" height="30" as="alternateBounds" />
          </mxGeometry>
        </mxCell>
        <mxCell id="8Jhp_cOmLeaIKp3F5dtW-4" value="- hasCar: bool" style="text;strokeColor=none;fillColor=none;align=left;verticalAlign=top;spacingLeft=4;spacingRight=4;overflow=hidden;rotatable=0;points=[[0,0.5],[1,0.5]];portConstraint=eastwest;whiteSpace=wrap;html=1;" vertex="1" parent="8Jhp_cOmLeaIKp3F5dtW-3">
          <mxGeometry y="26" width="156" height="26" as="geometry" />
        </mxCell>
        <mxCell id="8Jhp_cOmLeaIKp3F5dtW-5" value="" style="line;strokeWidth=1;fillColor=none;align=left;verticalAlign=middle;spacingTop=-1;spacingLeft=3;spacingRight=3;rotatable=0;labelPosition=right;points=[];portConstraint=eastwest;strokeColor=inherit;" vertex="1" parent="8Jhp_cOmLeaIKp3F5dtW-3">
          <mxGeometry y="52" width="156" height="8" as="geometry" />
        </mxCell>
        <mxCell id="8Jhp_cOmLeaIKp3F5dtW-9" value="&lt;br&gt;" style="endArrow=block;endSize=16;endFill=0;html=1;rounded=0;exitX=0.5;exitY=1;exitDx=0;exitDy=0;entryX=0.5;entryY=0;entryDx=0;entryDy=0;" edge="1" parent="WIyWlLk6GJQsqaUBKTNV-1" source="7Iyeh0ebuuwh2N7JU2GR-0" target="7Iyeh0ebuuwh2N7JU2GR-10">
          <mxGeometry width="160" relative="1" as="geometry">
            <mxPoint x="620" y="77" as="sourcePoint" />
            <mxPoint x="780" y="77" as="targetPoint" />
            <mxPoint as="offset" />
          </mxGeometry>
        </mxCell>
        <mxCell id="8Jhp_cOmLeaIKp3F5dtW-12" value="&lt;br&gt;" style="endArrow=block;endSize=16;endFill=0;html=1;rounded=0;entryX=0.5;entryY=0;entryDx=0;entryDy=0;exitX=0.5;exitY=1;exitDx=0;exitDy=0;" edge="1" parent="WIyWlLk6GJQsqaUBKTNV-1" source="7Iyeh0ebuuwh2N7JU2GR-10" target="7Iyeh0ebuuwh2N7JU2GR-17">
          <mxGeometry x="0.0556" width="160" relative="1" as="geometry">
            <mxPoint x="400" y="377" as="sourcePoint" />
            <mxPoint x="424" y="293" as="targetPoint" />
            <mxPoint as="offset" />
            <Array as="points">
              <mxPoint x="414" y="383" />
              <mxPoint x="130" y="383" />
            </Array>
          </mxGeometry>
        </mxCell>
        <mxCell id="8Jhp_cOmLeaIKp3F5dtW-15" value="&lt;br&gt;" style="endArrow=block;endSize=16;endFill=0;html=1;rounded=0;entryX=0.5;entryY=0;entryDx=0;entryDy=0;exitX=0.5;exitY=1;exitDx=0;exitDy=0;" edge="1" parent="WIyWlLk6GJQsqaUBKTNV-1" source="7Iyeh0ebuuwh2N7JU2GR-10" target="7Iyeh0ebuuwh2N7JU2GR-14">
          <mxGeometry x="-0.011" width="160" relative="1" as="geometry">
            <mxPoint x="420" y="377" as="sourcePoint" />
            <mxPoint x="320" y="403" as="targetPoint" />
            <mxPoint as="offset" />
            <Array as="points">
              <mxPoint x="414" y="383" />
              <mxPoint x="350" y="383" />
              <mxPoint x="308" y="383" />
            </Array>
          </mxGeometry>
        </mxCell>
        <mxCell id="8Jhp_cOmLeaIKp3F5dtW-16" value="&lt;br&gt;" style="endArrow=block;endSize=16;endFill=0;html=1;rounded=0;entryX=0.5;entryY=0;entryDx=0;entryDy=0;exitX=0.5;exitY=1;exitDx=0;exitDy=0;" edge="1" parent="WIyWlLk6GJQsqaUBKTNV-1" source="7Iyeh0ebuuwh2N7JU2GR-10" target="8Jhp_cOmLeaIKp3F5dtW-0">
          <mxGeometry x="0.0667" width="160" relative="1" as="geometry">
            <mxPoint x="430" y="377" as="sourcePoint" />
            <mxPoint x="640" y="393" as="targetPoint" />
            <mxPoint as="offset" />
            <Array as="points">
              <mxPoint x="414" y="383" />
              <mxPoint x="698" y="383" />
            </Array>
          </mxGeometry>
        </mxCell>
        <mxCell id="8Jhp_cOmLeaIKp3F5dtW-17" value="&lt;br&gt;" style="endArrow=block;endSize=16;endFill=0;html=1;rounded=0;entryX=0.5;entryY=0;entryDx=0;entryDy=0;exitX=0.5;exitY=1;exitDx=0;exitDy=0;" edge="1" parent="WIyWlLk6GJQsqaUBKTNV-1" source="7Iyeh0ebuuwh2N7JU2GR-10" target="8Jhp_cOmLeaIKp3F5dtW-3">
          <mxGeometry width="160" relative="1" as="geometry">
            <mxPoint x="390" y="377" as="sourcePoint" />
            <mxPoint x="708" y="423" as="targetPoint" />
            <mxPoint as="offset" />
            <Array as="points">
              <mxPoint x="414" y="383" />
              <mxPoint x="522" y="383" />
            </Array>
          </mxGeometry>
        </mxCell>
        <mxCell id="8Jhp_cOmLeaIKp3F5dtW-20" value="&lt;br&gt;" style="endArrow=block;endSize=16;endFill=0;html=1;rounded=0;entryX=0.5;entryY=0;entryDx=0;entryDy=0;exitX=0.5;exitY=1;exitDx=0;exitDy=0;" edge="1" parent="WIyWlLk6GJQsqaUBKTNV-1" source="7Iyeh0ebuuwh2N7JU2GR-17" target="7Iyeh0ebuuwh2N7JU2GR-27">
          <mxGeometry x="0.0556" width="160" relative="1" as="geometry">
            <mxPoint x="129.9999999999999" y="528.9999999999999" as="sourcePoint" />
            <mxPoint x="130" y="601" as="targetPoint" />
            <mxPoint as="offset" />
            <Array as="points">
              <mxPoint x="130" y="540" />
              <mxPoint x="220" y="540" />
            </Array>
          </mxGeometry>
        </mxCell>
        <mxCell id="8Jhp_cOmLeaIKp3F5dtW-23" value="" style="endArrow=block;endSize=16;endFill=0;html=1;rounded=0;exitX=0.5;exitY=1;exitDx=0;exitDy=0;entryX=0.5;entryY=0;entryDx=0;entryDy=0;" edge="1" parent="WIyWlLk6GJQsqaUBKTNV-1" source="7Iyeh0ebuuwh2N7JU2GR-27" target="7Iyeh0ebuuwh2N7JU2GR-31">
          <mxGeometry width="160" relative="1" as="geometry">
            <mxPoint x="200" y="916.5" as="sourcePoint" />
            <mxPoint x="360" y="916.5" as="targetPoint" />
          </mxGeometry>
        </mxCell>
        <mxCell id="8Jhp_cOmLeaIKp3F5dtW-28" value="" style="endArrow=block;endSize=16;endFill=0;html=1;rounded=0;entryX=0.5;entryY=0;entryDx=0;entryDy=0;exitX=0.5;exitY=1;exitDx=0;exitDy=0;" edge="1" parent="WIyWlLk6GJQsqaUBKTNV-1" source="7Iyeh0ebuuwh2N7JU2GR-31" target="7Iyeh0ebuuwh2N7JU2GR-39">
          <mxGeometry width="160" relative="1" as="geometry">
            <mxPoint x="230" y="777" as="sourcePoint" />
            <mxPoint x="230" y="857" as="targetPoint" />
            <Array as="points">
              <mxPoint x="220" y="780" />
              <mxPoint x="308" y="780" />
            </Array>
          </mxGeometry>
        </mxCell>
        <mxCell id="8Jhp_cOmLeaIKp3F5dtW-29" value="" style="endArrow=block;endSize=16;endFill=0;html=1;rounded=0;entryX=0.5;entryY=0;entryDx=0;entryDy=0;exitX=0.5;exitY=1;exitDx=0;exitDy=0;" edge="1" parent="WIyWlLk6GJQsqaUBKTNV-1" source="7Iyeh0ebuuwh2N7JU2GR-31" target="7Iyeh0ebuuwh2N7JU2GR-35">
          <mxGeometry width="160" relative="1" as="geometry">
            <mxPoint x="230" y="777" as="sourcePoint" />
            <mxPoint x="400" y="857" as="targetPoint" />
            <Array as="points">
              <mxPoint x="220" y="780" />
              <mxPoint x="132" y="780" />
            </Array>
          </mxGeometry>
        </mxCell>
        <mxCell id="8Jhp_cOmLeaIKp3F5dtW-30" value="MainController" style="swimlane;fontStyle=1;align=center;verticalAlign=top;childLayout=stackLayout;horizontal=1;startSize=26;horizontalStack=0;resizeParent=1;resizeParentMax=0;resizeLast=0;collapsible=1;marginBottom=0;whiteSpace=wrap;html=1;" vertex="1" parent="WIyWlLk6GJQsqaUBKTNV-1">
          <mxGeometry x="50" y="1017" width="160" height="86" as="geometry" />
        </mxCell>
        <mxCell id="8Jhp_cOmLeaIKp3F5dtW-31" value="&amp;nbsp;" style="text;strokeColor=none;fillColor=none;align=left;verticalAlign=top;spacingLeft=4;spacingRight=4;overflow=hidden;rotatable=0;points=[[0,0.5],[1,0.5]];portConstraint=eastwest;whiteSpace=wrap;html=1;" vertex="1" parent="8Jhp_cOmLeaIKp3F5dtW-30">
          <mxGeometry y="26" width="160" height="26" as="geometry" />
        </mxCell>
        <mxCell id="8Jhp_cOmLeaIKp3F5dtW-32" value="" style="line;strokeWidth=1;fillColor=none;align=left;verticalAlign=middle;spacingTop=-1;spacingLeft=3;spacingRight=3;rotatable=0;labelPosition=right;points=[];portConstraint=eastwest;strokeColor=inherit;" vertex="1" parent="8Jhp_cOmLeaIKp3F5dtW-30">
          <mxGeometry y="52" width="160" height="8" as="geometry" />
        </mxCell>
        <mxCell id="8Jhp_cOmLeaIKp3F5dtW-33" value="+ Start()" style="text;strokeColor=none;fillColor=none;align=left;verticalAlign=top;spacingLeft=4;spacingRight=4;overflow=hidden;rotatable=0;points=[[0,0.5],[1,0.5]];portConstraint=eastwest;whiteSpace=wrap;html=1;" vertex="1" parent="8Jhp_cOmLeaIKp3F5dtW-30">
          <mxGeometry y="60" width="160" height="26" as="geometry" />
        </mxCell>
        <mxCell id="8Jhp_cOmLeaIKp3F5dtW-34" value="1" style="endArrow=open;html=1;endSize=12;startArrow=diamondThin;startSize=14;startFill=1;edgeStyle=orthogonalEdgeStyle;align=left;verticalAlign=bottom;rounded=0;exitX=0.5;exitY=0;exitDx=0;exitDy=0;entryX=0.5;entryY=0;entryDx=0;entryDy=0;" edge="1" parent="WIyWlLk6GJQsqaUBKTNV-1" source="8Jhp_cOmLeaIKp3F5dtW-30" target="7Iyeh0ebuuwh2N7JU2GR-0">
          <mxGeometry x="-0.9905" y="-10" relative="1" as="geometry">
            <mxPoint x="250" y="987" as="sourcePoint" />
            <mxPoint x="230" y="397" as="targetPoint" />
            <Array as="points">
              <mxPoint x="130" y="980" />
              <mxPoint x="30" y="980" />
              <mxPoint x="30" y="50" />
              <mxPoint x="414" y="50" />
            </Array>
            <mxPoint as="offset" />
          </mxGeometry>
        </mxCell>
        <mxCell id="8Jhp_cOmLeaIKp3F5dtW-35" value="" style="endArrow=open;html=1;endSize=12;startArrow=diamondThin;startSize=14;startFill=1;edgeStyle=orthogonalEdgeStyle;align=left;verticalAlign=bottom;rounded=0;exitX=0.5;exitY=0;exitDx=0;exitDy=0;entryX=0.25;entryY=0;entryDx=0;entryDy=0;" edge="1" parent="WIyWlLk6GJQsqaUBKTNV-1" source="8Jhp_cOmLeaIKp3F5dtW-30" target="7Iyeh0ebuuwh2N7JU2GR-10">
          <mxGeometry x="-1" y="3" relative="1" as="geometry">
            <mxPoint x="270" y="1000" as="sourcePoint" />
            <mxPoint x="430" y="1000" as="targetPoint" />
            <Array as="points">
              <mxPoint x="130" y="980" />
              <mxPoint x="30" y="980" />
              <mxPoint x="30" y="230" />
              <mxPoint x="359" y="230" />
            </Array>
          </mxGeometry>
        </mxCell>
        <mxCell id="8Jhp_cOmLeaIKp3F5dtW-36" value="" style="endArrow=open;html=1;endSize=12;startArrow=diamondThin;startSize=14;startFill=1;edgeStyle=orthogonalEdgeStyle;align=left;verticalAlign=bottom;rounded=0;exitX=0.5;exitY=0;exitDx=0;exitDy=0;entryX=0.25;entryY=0;entryDx=0;entryDy=0;" edge="1" parent="WIyWlLk6GJQsqaUBKTNV-1" source="8Jhp_cOmLeaIKp3F5dtW-30" target="7Iyeh0ebuuwh2N7JU2GR-17">
          <mxGeometry x="-1" y="3" relative="1" as="geometry">
            <mxPoint x="300" y="1050" as="sourcePoint" />
            <mxPoint x="460" y="1050" as="targetPoint" />
            <Array as="points">
              <mxPoint x="130" y="980" />
              <mxPoint x="30" y="980" />
              <mxPoint x="30" y="400" />
              <mxPoint x="91" y="400" />
            </Array>
          </mxGeometry>
        </mxCell>
        <mxCell id="8Jhp_cOmLeaIKp3F5dtW-37" value="" style="endArrow=open;html=1;endSize=12;startArrow=diamondThin;startSize=14;startFill=1;edgeStyle=orthogonalEdgeStyle;align=left;verticalAlign=bottom;rounded=0;exitX=0.5;exitY=0;exitDx=0;exitDy=0;entryX=0.25;entryY=0;entryDx=0;entryDy=0;" edge="1" parent="WIyWlLk6GJQsqaUBKTNV-1" source="8Jhp_cOmLeaIKp3F5dtW-30" target="7Iyeh0ebuuwh2N7JU2GR-14">
          <mxGeometry x="-1" y="3" relative="1" as="geometry">
            <mxPoint x="310" y="1060" as="sourcePoint" />
            <mxPoint x="470" y="1060" as="targetPoint" />
            <Array as="points">
              <mxPoint x="130" y="980" />
              <mxPoint x="30" y="980" />
              <mxPoint x="30" y="400" />
              <mxPoint x="269" y="400" />
            </Array>
          </mxGeometry>
        </mxCell>
        <mxCell id="8Jhp_cOmLeaIKp3F5dtW-38" value="" style="endArrow=open;html=1;endSize=12;startArrow=diamondThin;startSize=14;startFill=1;edgeStyle=orthogonalEdgeStyle;align=left;verticalAlign=bottom;rounded=0;exitX=0.5;exitY=0;exitDx=0;exitDy=0;entryX=0.25;entryY=0;entryDx=0;entryDy=0;" edge="1" parent="WIyWlLk6GJQsqaUBKTNV-1" source="8Jhp_cOmLeaIKp3F5dtW-30" target="8Jhp_cOmLeaIKp3F5dtW-3">
          <mxGeometry x="-1" y="3" relative="1" as="geometry">
            <mxPoint x="320" y="1070" as="sourcePoint" />
            <mxPoint x="480" y="1070" as="targetPoint" />
            <Array as="points">
              <mxPoint x="130" y="980" />
              <mxPoint x="30" y="980" />
              <mxPoint x="30" y="400" />
              <mxPoint x="483" y="400" />
            </Array>
          </mxGeometry>
        </mxCell>
        <mxCell id="8Jhp_cOmLeaIKp3F5dtW-39" value="" style="endArrow=open;html=1;endSize=12;startArrow=diamondThin;startSize=14;startFill=1;edgeStyle=orthogonalEdgeStyle;align=left;verticalAlign=bottom;rounded=0;exitX=0.5;exitY=0;exitDx=0;exitDy=0;entryX=0.25;entryY=0;entryDx=0;entryDy=0;" edge="1" parent="WIyWlLk6GJQsqaUBKTNV-1" source="8Jhp_cOmLeaIKp3F5dtW-30" target="8Jhp_cOmLeaIKp3F5dtW-0">
          <mxGeometry x="-1" y="3" relative="1" as="geometry">
            <mxPoint x="330" y="1080" as="sourcePoint" />
            <mxPoint x="490" y="1080" as="targetPoint" />
            <Array as="points">
              <mxPoint x="130" y="980" />
              <mxPoint x="30" y="980" />
              <mxPoint x="30" y="400" />
              <mxPoint x="659" y="400" />
            </Array>
          </mxGeometry>
        </mxCell>
        <mxCell id="8Jhp_cOmLeaIKp3F5dtW-40" value="" style="endArrow=open;html=1;endSize=12;startArrow=diamondThin;startSize=14;startFill=1;edgeStyle=orthogonalEdgeStyle;align=left;verticalAlign=bottom;rounded=0;exitX=0.5;exitY=0;exitDx=0;exitDy=0;entryX=0.25;entryY=0;entryDx=0;entryDy=0;" edge="1" parent="WIyWlLk6GJQsqaUBKTNV-1" source="8Jhp_cOmLeaIKp3F5dtW-30" target="7Iyeh0ebuuwh2N7JU2GR-27">
          <mxGeometry x="-1" y="3" relative="1" as="geometry">
            <mxPoint x="340" y="1090" as="sourcePoint" />
            <mxPoint x="500" y="1090" as="targetPoint" />
            <Array as="points">
              <mxPoint x="130" y="980" />
              <mxPoint x="30" y="980" />
              <mxPoint x="30" y="560" />
              <mxPoint x="180" y="560" />
            </Array>
          </mxGeometry>
        </mxCell>
        <mxCell id="8Jhp_cOmLeaIKp3F5dtW-41" value="" style="endArrow=open;html=1;endSize=12;startArrow=diamondThin;startSize=14;startFill=1;edgeStyle=orthogonalEdgeStyle;align=left;verticalAlign=bottom;rounded=0;exitX=0.5;exitY=0;exitDx=0;exitDy=0;entryX=0.25;entryY=0;entryDx=0;entryDy=0;" edge="1" parent="WIyWlLk6GJQsqaUBKTNV-1" source="8Jhp_cOmLeaIKp3F5dtW-30" target="7Iyeh0ebuuwh2N7JU2GR-31">
          <mxGeometry x="-1" y="3" relative="1" as="geometry">
            <mxPoint x="350" y="1100" as="sourcePoint" />
            <mxPoint x="510" y="1100" as="targetPoint" />
            <Array as="points">
              <mxPoint x="130" y="980" />
              <mxPoint x="30" y="980" />
              <mxPoint x="30" y="680" />
              <mxPoint x="180" y="680" />
            </Array>
          </mxGeometry>
        </mxCell>
        <mxCell id="8Jhp_cOmLeaIKp3F5dtW-42" value="" style="endArrow=open;html=1;endSize=12;startArrow=diamondThin;startSize=14;startFill=1;edgeStyle=orthogonalEdgeStyle;align=left;verticalAlign=bottom;rounded=0;exitX=0.5;exitY=0;exitDx=0;exitDy=0;entryX=0.25;entryY=0;entryDx=0;entryDy=0;" edge="1" parent="WIyWlLk6GJQsqaUBKTNV-1" source="8Jhp_cOmLeaIKp3F5dtW-30" target="7Iyeh0ebuuwh2N7JU2GR-35">
          <mxGeometry x="-1" y="3" relative="1" as="geometry">
            <mxPoint x="360" y="1110" as="sourcePoint" />
            <mxPoint x="520" y="1110" as="targetPoint" />
            <Array as="points">
              <mxPoint x="130" y="980" />
              <mxPoint x="30" y="980" />
              <mxPoint x="30" y="800" />
              <mxPoint x="92" y="800" />
            </Array>
          </mxGeometry>
        </mxCell>
        <mxCell id="8Jhp_cOmLeaIKp3F5dtW-43" value="" style="endArrow=open;html=1;endSize=12;startArrow=diamondThin;startSize=14;startFill=1;edgeStyle=orthogonalEdgeStyle;align=left;verticalAlign=bottom;rounded=0;exitX=0.5;exitY=0;exitDx=0;exitDy=0;entryX=0.25;entryY=0;entryDx=0;entryDy=0;" edge="1" parent="WIyWlLk6GJQsqaUBKTNV-1" source="8Jhp_cOmLeaIKp3F5dtW-30" target="7Iyeh0ebuuwh2N7JU2GR-39">
          <mxGeometry x="-1" y="3" relative="1" as="geometry">
            <mxPoint x="370" y="1120" as="sourcePoint" />
            <mxPoint x="530" y="1120" as="targetPoint" />
            <Array as="points">
              <mxPoint x="130" y="980" />
              <mxPoint x="30" y="980" />
              <mxPoint x="30" y="800" />
              <mxPoint x="268" y="800" />
            </Array>
          </mxGeometry>
        </mxCell>
      </root>
    </mxGraphModel>
  </diagram>
</mxfile>
